<?xml version="1.0" encoding="utf-8"?>
<svg xmlns="http://www.w3.org/2000/svg" viewBox="2437.7 1617.4 313.9 375.4">
<path style="fill:#FFA8E2;" d="M2693.959,1706.419c-0.182-15.004-0.997-31.616-11.512-42.321
				c-10.019-10.2-25.655-11.744-39.921-12.688c-45.705-3.024-91.962-6.02-137.027,2.174c-4.104,0.746-8.345,1.651-11.673,4.167
				c-5.857,4.428-7.319,12.475-8.292,19.753c-1.068,7.992-1.378,17.69,5.207,22.343c4.728,3.341,11.107,2.558,16.835,1.722
				C2569.752,1692.497,2633.468,1694.071,2693.959,1706.419z"/>
<path style="fill:#FFA8E2;" d="M2482.406,1739.607c67.024-4.097,134.314-3.836,201.304,0.78c2.044,0.141,4.171,0.311,5.935,1.351
				c2.322,1.369,3.588,3.993,4.4,6.563c2.96,9.363,1.572,19.476,0.156,29.193c-7.148,49.06-14.297,98.121-21.445,147.181
				c-1.856,12.74-4.666,27.036-15.461,34.051c-6.732,4.374-15.186,4.877-23.21,5.116c-32.44,0.966-64.944-0.223-97.226-3.558
				c-12.031-1.243-25.283-3.448-32.866-12.872c-6.134-7.623-6.96-18.089-7.53-27.858
				C2493.089,1861.646,2489.713,1803.737,2482.406,1739.607z"/>
<path style="fill:#E58EC8;" d="M2564.298,1742.668c44.823,2.84,89.646,5.679,134.469,8.519c4.389,0.278,8.961,0.527,13.017-1.173
				c5.642-2.365,9.237-8.183,10.534-14.162c1.297-5.978,0.653-12.186,0.003-18.268c-0.345-3.234-0.753-6.634-2.672-9.259
				c-2.671-3.653-7.512-4.846-11.961-5.674c-32.264-6.003-64.438-6.197-97.112-9.271c-39.133-3.682-79.288,2.703-118.432,2.555
				c-7.851-0.03-16.741,0.385-21.907,6.296c-4.12,4.715-4.548,11.557-4.249,17.811c0.386,8.068,2.36,17.211,9.385,21.197
				c4.935,2.8,11.003,2.226,16.652,1.697C2515.922,1740.697,2540.002,1741.129,2564.298,1742.668z"/>
<path style="fill:#FFDF9E;" d="M2550.634,1839.463c2.685-8.105,7.732-15.996,15.585-19.347c7.853-3.351,18.637-0.365,21.56,7.656
				c2.681,7.356-1.67,16.097,1.679,23.173c3.198,6.755,12.202,9.273,15.279,16.085c2.331,5.161,0.401,11.497-3.436,15.662
				c-3.836,4.166-9.231,6.53-14.618,8.277c-4.685,1.519-9.651,2.669-14.512,1.88c-6.473-1.051-12.03-5.5-15.681-10.947
				s-5.618-11.839-7.126-18.221C2547.364,1855.213,2548.218,1846.756,2550.634,1839.463z"/>
<path style="fill:#FFDEB8;" d="M2594.728,1830.14c-0.166-7.476,0.423-16.396,6.859-20.204c5.186-3.069,12.209-1.065,16.502,3.165
				c4.293,4.229,6.409,10.159,8.01,15.969c1.648,5.98,2.896,12.071,3.732,18.218c0.696,5.113,1.076,10.491-0.857,15.275
				c-1.933,4.784-6.826,8.737-11.929,7.973c-2.371-0.355-4.495-1.651-6.409-3.096
				C2599.894,1859.327,2595.064,1845.316,2594.728,1830.14z"/>
</svg>
